<svg xmlns="http://www.w3.org/2000/svg" version="1.1" xmlns:xlink="http://www.w3.org/1999/xlink" xmlns:svgjs="http://svgjs.com/svgjs" width="1440" height="560" preserveAspectRatio="none" viewBox="0 0 1440 560"><g mask="url(&quot;#SvgjsMask1006&quot;)" fill="none"><path d="M35 140C37.48 72.36 -19.66 36.3 7.57 0C32.84 -33.7 73.78 0 140 0C210 0 210 0 280 0C350 0 350 0 420 0C490 0 490 0 560 0C620.39 0 650.24 -32.36 680.78 0C716.3 37.64 683.45 70.95 692.11 140C693.06 147.62 695.21 153.33 700 153.33C705.82 153.33 706.53 146.52 713.33 140C776.53 79.4 774.35 76.43 840 19.09C854.49 6.43 854.95 2.54 873.6 0C924.95 -7 926.8 0 980 0C1050 0 1050 0 1120 0C1190 0 1190 0 1260 0C1330 0 1330 0 1400 0C1470 0 1505 -35 1540 0C1575 35 1540 70 1540 140C1540 210 1540 210 1540 280C1540 350 1540 350 1540 420C1540 483.39 1572.82 524.63 1540 546.79C1502.82 571.9 1470.86 520.87 1400 514.55C1330.86 508.38 1322.48 504.74 1260 521.82C1239.35 527.47 1254.01 554.47 1233.75 560C1184.01 573.56 1176.88 560 1120 560C1069.44 560 1063.63 573.35 1018.89 560C993.63 552.46 1000.23 518.21 980 518.21C958.2 518.21 962.38 551.78 934.84 560C892.38 572.67 887.42 560 840 560C792.58 560 788.84 570.92 745.16 560C718.84 553.42 721.04 544.27 700 525C644.61 474.27 636.1 479.12 592.31 420C566.1 384.62 592.93 344.48 560 336C506.77 322.29 484.84 346.62 420 375.61C390.9 388.62 372.11 398.61 372.11 420C372.11 440.17 397.49 437.75 420 458.72C472.62 507.75 522.37 530.4 522.37 560C522.37 581.04 471.18 560 420 560C350 560 350 560 280 560C210 560 210 560 140 560C95.79 560 86.87 577.65 51.58 560C16.87 542.65 14.29 528.78 0 490C-11.5 458.78 0 455 0 420C0 350 0 350 0 280C0 243.34 -8.63 241.21 0 206.67C8.87 171.21 33.69 175.7 35 140" stroke="rgba(51, 121, 194, 0.58)" stroke-width="2"></path><path d="M420 96.39C401.03 96.39 379.08 119.25 379.08 140C379.08 158.79 400.78 175.47 420 175.47C436.7 175.47 450.93 158.51 450.93 140C450.93 118.97 436.96 96.39 420 96.39" stroke="rgba(51, 121, 194, 0.58)" stroke-width="2"></path><path d="M840 253.19C827.35 253.19 816.63 262.24 813.19 280C800.48 345.64 797.96 353.97 807.69 420C811.37 444.97 822.9 462 840 462C858.44 462 875.69 446.24 878.77 420C886.37 355.24 876.96 347.1 861.36 280C857.57 263.7 851.44 253.19 840 253.19" stroke="rgba(51, 121, 194, 0.58)" stroke-width="2"></path><path d="M1260 204.62C1248.03 204.62 1244.19 243.73 1244.19 280C1244.19 293.98 1249.75 305.13 1260 305.13C1274.55 305.13 1293.79 296.97 1293.79 280C1293.79 246.71 1272.83 204.62 1260 204.62" stroke="rgba(51, 121, 194, 0.58)" stroke-width="2"></path><path d="M78.75 140C86.4 72.04 35.71 43.76 54.86 0C66.34 -26.24 97.43 0 140 0C190 0 200.23 -18.36 240 0C270.23 13.95 260.24 32.16 280 64.62C302.86 102.16 296.38 107.54 325.23 140C366.38 186.3 375.48 222.13 420 222.13C458.68 222.13 491.63 182.86 491.63 140C491.63 91.31 462.75 81.88 420 39.02C392.93 11.88 352 10.45 352 0C352 -9.06 386 0 420 0C490 0 490 0 560 0C586.08 0 601.11 -18.68 612.16 0C642.52 51.32 618.2 73.66 642.82 140C662.12 191.99 668.4 190.54 700 236.67C716.35 260.54 729.6 253.39 738.72 280C761.01 345.05 774.79 357.79 762.82 420C755.43 458.42 731.41 481.25 700 481.25C668.59 481.25 650.65 458.74 637.18 420C615.65 358.11 654.86 335.75 630 280C616.27 249.21 593.06 246.91 560 246.91C537.38 246.91 541.12 266.19 518.64 280C471.12 309.2 464.91 300.28 420 332.93C368.61 370.28 326.05 378.05 326.05 420C326.05 459.57 374.76 456.04 420 495.96C454.1 526.04 484.73 541.28 484.73 560C484.73 573.3 452.37 560 420 560C362.12 560 354.86 573.4 304.23 560C284.86 554.87 295.61 538.45 280 522.94C225.16 468.45 218.43 474.29 163.33 420C148.43 405.32 154.79 399.79 140 385C84.79 329.79 38.96 342.52 23.33 280C8.34 220.02 70.64 212.04 78.75 140" stroke="rgba(51, 121, 194, 0.58)" stroke-width="2"></path><path d="M796.67 140C796.67 119.68 815.31 115.32 840 98.64C906.98 53.39 906.63 48.46 980 16.15C1018.63 -0.86 1021.7 4.88 1064 0C1091.7 -3.19 1092 0 1120 0C1190 0 1190 0 1260 0C1301.18 0 1342.35 -11.18 1342.35 0C1342.35 12.96 1295.22 17.14 1260 48.28C1216.05 87.14 1200.61 86.75 1184 140C1164.48 202.61 1168.44 215.28 1187.74 280C1206.44 342.71 1213.28 391.79 1260 394.87C1319.41 398.79 1330.53 345.1 1400 294C1408.6 287.67 1415.76 290.17 1416.15 280C1418.68 213.17 1377.99 195.61 1405.83 140C1439.91 71.94 1498.71 32.67 1540 32.67C1565.79 32.67 1540 86.34 1540 140C1540 210 1540 210 1540 280C1540 350 1540 350 1540 420C1540 450.38 1561.13 473.34 1540 480.75C1491.13 497.89 1469.49 478.64 1400 469.09C1329.49 459.4 1315.17 419.57 1260 442.27C1204.7 465.02 1228.59 518.35 1179.06 560C1158.59 577.22 1149.53 560 1120 560C1093.75 560 1087.81 573.64 1067.5 560C1017.81 526.63 1024.55 512.21 980 465.97C957.11 442.21 942.1 449.72 932.62 420C912.44 356.74 944.78 342.78 920.68 280C898.47 222.14 882.8 227.04 840 178.72C820.79 157.04 796.67 159.72 796.67 140" stroke="rgba(51, 121, 194, 0.58)" stroke-width="2"></path><path d="M801.61 560C801.61 548.3 820.81 520.33 840 520.33C859.19 520.33 878.39 548.3 878.39 560C878.39 568.14 859.19 560 840 560C820.81 560 801.61 568.14 801.61 560" stroke="rgba(51, 121, 194, 0.58)" stroke-width="2"></path><path d="M122.5 140C109.97 70.47 95.26 55.23 102.16 0C104.01 -14.77 121.08 0 140 0C162.22 0 173.05 -15.95 184.44 0C223.05 54.05 206.07 73.71 240 140C253.85 167.05 255.28 168.98 280 186.67C345.28 233.38 350 227.73 420 268.8C429.55 274.4 439.09 274.58 439.09 280C439.09 285.3 428.11 283.11 420 290.24C348.56 353.11 336.09 422.84 280 420C234.98 417.72 259.37 342.39 217.78 280C189.37 237.39 168.2 251.43 140 210C120.56 181.43 128.89 175.47 122.5 140" stroke="rgba(51, 121, 194, 0.58)" stroke-width="2"></path><path d="M532.33 140C532.33 90.41 544.82 36.52 560 36.52C575.41 36.52 593.52 91.19 593.52 140C593.52 164.56 575.78 183.27 560 183.27C545.19 183.27 532.33 163.78 532.33 140" stroke="rgba(51, 121, 194, 0.58)" stroke-width="2"></path><path d="M890.91 140C890.91 101.8 934.86 83.46 980 83.46C1028.4 83.46 1040.72 100.98 1078 140C1110.72 174.25 1102.43 183.83 1120 230C1129.07 253.83 1131.29 255 1131.29 280C1131.29 305 1139.4 330 1120 330C1063.75 330 1050 305 980 280C980 280 980 280 980 280C935.45 210 890.91 200.07 890.91 140" stroke="rgba(51, 121, 194, 0.58)" stroke-width="2"></path><path d="M1478.75 140C1478.75 108.5 1521.15 91 1540 91C1551.78 91 1540 115.5 1540 140C1540 203.91 1554.52 267.83 1540 267.83C1523.9 267.83 1478.75 196.92 1478.75 140" stroke="rgba(51, 121, 194, 0.58)" stroke-width="2"></path><path d="M682.05 420C682.05 390.58 691.03 356.36 700 356.36C708.97 356.36 717.95 390.58 717.95 420C717.95 431.15 708.97 437.5 700 437.5C691.03 437.5 682.05 431.15 682.05 420" stroke="rgba(51, 121, 194, 0.58)" stroke-width="2"></path><path d="M1386 420C1386 416.51 1391.92 410.67 1400 410.67C1433.92 410.67 1470 416.75 1470 420C1470 423.23 1434.82 423.64 1400 423.64C1392.82 423.64 1386 423 1386 420" stroke="rgba(51, 121, 194, 0.58)" stroke-width="2"></path><path d="M371.54 560C371.54 552.85 397.62 533.19 420 533.19C435.4 533.19 447.1 552.16 447.1 560C447.1 565.57 433.55 560 420 560C395.77 560 371.54 566.26 371.54 560" stroke="rgba(51, 121, 194, 0.58)" stroke-width="2"></path><path d="M1116.11 560C1116.11 548.95 1117.94 534.55 1120 534.55C1122.07 534.55 1124.38 549.12 1124.38 560C1124.38 561.85 1122.19 560 1120 560C1118.05 560 1116.11 561.67 1116.11 560" stroke="rgba(51, 121, 194, 0.58)" stroke-width="2"></path></g><defs><mask id="SvgjsMask1006"><rect width="1440" height="560" fill="#ffffff"></rect></mask></defs></svg>