<svg xmlns="http://www.w3.org/2000/svg" viewBox="0 0 318.94 41.03"><g id="Layer_2" data-name="Layer 2"><g id="Layer_1-2" data-name="Layer 1"><path d="M3.74.39H35.49a1.24,1.24,0,0,1,1.4,1.4c0,1-.46,1.49-1.4,1.49H3.12V39.55c0,1-.55,1.48-1.64,1.48A1.31,1.31,0,0,1,0,39.55V4.21C0,1.67,1.25.39,3.74.39Zm7.18,37.36H36.11V21.68H21.45c-.94,0-1.4-.49-1.4-1.48a1.24,1.24,0,0,1,1.4-1.4H37.6a1.44,1.44,0,0,1,1.63,1.64V36.89c0,2.5-1.24,3.75-3.74,3.75H10.92c-.94,0-1.4-.5-1.4-1.48A1.24,1.24,0,0,1,10.92,37.75Z" style="fill:rgb(21 128 61)"/><path d="M59,39V2.11C59,1,59.59.39,60.68.39H91a1.24,1.24,0,0,1,1.4,1.4c0,1-.47,1.49-1.4,1.49H62.16V37.75h29.1c.93,0,1.4.5,1.4,1.48a1.24,1.24,0,0,1-1.4,1.41H60.68A1.45,1.45,0,0,1,59,39ZM69.89,18.49H86.27c.88,0,1.32.49,1.32,1.48s-.44,1.4-1.32,1.4H69.89c-.89,0-1.33-.49-1.33-1.48S69,18.49,69.89,18.49Z" style="fill:rgb(21 128 61)"/><path d="M108.57.78A.34.34,0,0,1,109,.39h1.72a2.24,2.24,0,0,1,1.72.78l30.65,35.88V1.48c0-1,.52-1.48,1.56-1.48h.08a1.31,1.31,0,0,1,1.48,1.48V38.53c0,1.61-.75,2.42-2.26,2.42a3,3,0,0,1-2.42-1.09L108.81,1.48A.93.93,0,0,1,108.57.78Zm0,38.77V10.69q0-.63.24-.63s.2.13.47.39l1.79,2.11a2.57,2.57,0,0,1,.62,1.79v25.2A1.31,1.31,0,0,1,110.21,41h-.08C109.09,41,108.57,40.54,108.57,39.55Z" style="fill:rgb(21 128 61)"/><path d="M166.68,39V2.11c0-1.15.55-1.72,1.64-1.72h30.26A1.24,1.24,0,0,1,200,1.79c0,1-.47,1.49-1.41,1.49H169.8V37.75h29.1c.93,0,1.4.5,1.4,1.48a1.24,1.24,0,0,1-1.4,1.41H168.32A1.45,1.45,0,0,1,166.68,39Zm10.84-20.51H193.9c.89,0,1.33.49,1.33,1.48s-.44,1.4-1.33,1.4H177.52c-.88,0-1.32-.49-1.32-1.48S176.64,18.49,177.52,18.49Z" style="fill:rgb(21 128 61)"/><path d="M212.47,10.92a10.27,10.27,0,0,1,.78-4,11.33,11.33,0,0,1,2.14-3.35,10,10,0,0,1,3.24-2.34,9.46,9.46,0,0,1,4-.86h20.82c.94,0,1.41.49,1.41,1.48a1.25,1.25,0,0,1-1.41,1.41H223.08a7,7,0,0,0-5.43,2.26,7.74,7.74,0,0,0-2.06,5.38,8.42,8.42,0,0,0,.51,2.89,7.24,7.24,0,0,0,1.44,2.45A7,7,0,0,0,219.88,18a7.41,7.41,0,0,0,3.2.66h14.19a10.36,10.36,0,0,1,4.21.86,11.59,11.59,0,0,1,3.44,2.3,10.17,10.17,0,0,1,2.3,3.47,11.67,11.67,0,0,1,.82,4.37,11.39,11.39,0,0,1-.82,4.33,10.68,10.68,0,0,1-2.3,3.47,11.16,11.16,0,0,1-3.44,2.34,10.36,10.36,0,0,1-4.21.86H215a1.24,1.24,0,0,1-1.4-1.41v-.07a1.24,1.24,0,0,1,1.4-1.41h21.92a7.63,7.63,0,0,0,5.89-2.3,8.18,8.18,0,0,0,2.15-5.81A8.41,8.41,0,0,0,242.81,24a7.41,7.41,0,0,0-5.93-2.42H222.61a9.46,9.46,0,0,1-4-.86,10.32,10.32,0,0,1-3.24-2.3,10.77,10.77,0,0,1-2.92-7.45Z" style="fill:rgb(21 128 61)"/><path d="M263.63,39.55V1.48c0-1,.55-1.48,1.64-1.48a1.31,1.31,0,0,1,1.48,1.48V39.55A1.31,1.31,0,0,1,265.27,41h-.15A1.31,1.31,0,0,1,263.63,39.55Z" style="fill:rgb(21 128 61)"/><path d="M283.37,10.92a10.27,10.27,0,0,1,.78-4,11.33,11.33,0,0,1,2.14-3.35,10,10,0,0,1,3.24-2.34,9.46,9.46,0,0,1,4-.86h20.82c.94,0,1.41.49,1.41,1.48a1.25,1.25,0,0,1-1.41,1.41H294a7,7,0,0,0-5.42,2.26,7.7,7.7,0,0,0-2.07,5.38,8.42,8.42,0,0,0,.51,2.89,7.24,7.24,0,0,0,1.44,2.45A7,7,0,0,0,290.78,18a7.41,7.41,0,0,0,3.2.66h14.19a10.36,10.36,0,0,1,4.21.86,11.59,11.59,0,0,1,3.44,2.3,10.17,10.17,0,0,1,2.3,3.47,11.67,11.67,0,0,1,.82,4.37,11.39,11.39,0,0,1-.82,4.33,10.68,10.68,0,0,1-2.3,3.47,11.16,11.16,0,0,1-3.44,2.34,10.36,10.36,0,0,1-4.21.86H285.86a1.24,1.24,0,0,1-1.4-1.41v-.07a1.24,1.24,0,0,1,1.4-1.41h21.92a7.63,7.63,0,0,0,5.89-2.3,8.18,8.18,0,0,0,2.15-5.81A8.41,8.41,0,0,0,313.71,24a7.41,7.41,0,0,0-5.93-2.42H293.51a9.46,9.46,0,0,1-4-.86,10.32,10.32,0,0,1-3.24-2.3,10.77,10.77,0,0,1-2.92-7.45Z" style="fill:rgb(21 128 61)"/></g></g></svg>
