<svg xmlns="http://www.w3.org/2000/svg" viewBox="0 0 410.34 65.74"><g id="Layer_2" data-name="Layer 2"><g id="Layer_1-2" data-name="Layer 1"><path d="M15.23,29V59.53H0V6.21H19.8L42.16,50.54l-7.88,15.2ZM68.55,6.21V59.53H53.32V29L44.48,46.05l-8-15.77L48.75,6.21Z" fill="#231f20"/><path d="M100.58,35.46,88.36,59.53H72L92.62,19.69ZM95,15.2,102.83,0l30.85,59.53H117.3Z" fill="#231f20"/><path d="M172.87,17.63H119.55V6.21h53.32Zm-34.28,3.81h15.24V59.53H138.59Z" fill="#231f20"/><path d="M187.19,35.46,175,59.53H158.59l20.64-39.84ZM181.56,15.2,189.44,0l30.85,59.53H203.91Z" fill="#231f20"/><path d="M261.8,17.63H223.72V6.21H261.8q19.05,0,19.05,15.23V44.29q0,15.24-19.05,15.24h-19V48.1h19a3.8,3.8,0,0,0,3.81-3.81V21.44A3.81,3.81,0,0,0,261.8,17.63ZM239,59.53H223.72V21.44H239Z" fill="#231f20"/><path d="M303.7,44.29q0,3.81,3.81,3.81V59.53q-19,0-19.05-15.24V21.44q0-15.23,19.05-15.23h15.23V17.63H307.51a3.81,3.81,0,0,0-3.81,3.81Zm26.66-22.85q0-3.81-3.81-3.81V6.21q19,0,19,15.23V44.29q0,15.24-19,15.24H311.31V48.1h15.24a3.81,3.81,0,0,0,3.81-3.81Z" fill="#231f20"/><path d="M391.29,17.63H353.21V6.21h38.08q19.05,0,19,15.23v3.81q0,12.22-12.27,14.63l12.27,19.65h-19l-19-30.47h19a3.81,3.81,0,0,0,3.81-3.81V21.44A3.81,3.81,0,0,0,391.29,17.63Zm-22.85,41.9H353.21V21.44h15.23Z" fill="#231f20"/></g></g></svg>