<svg xmlns="http://www.w3.org/2000/svg" viewBox="0 0 383.56 51.04"><g id="Layer_2" data-name="Layer 2"><g id="Layer_1-2" data-name="Layer 1"><path d="M0,10.6A4.36,4.36,0,0,1,4.76,12L21.53,32.32,38.14,11.57a3,3,0,0,1,2.42-1.17h1.56a.2.2,0,0,1,.23.23.33.33,0,0,1-.07.24L23.48,34.35a2.73,2.73,0,0,1-1.95,1.24,2.92,2.92,0,0,1-2-1.24L3.12,14.46v35.1q0,2-3.12,1.26ZM39.23,24.91a4.15,4.15,0,0,1,.94-2.65l1.25-1.56a2.64,2.64,0,0,1,.62-.55c.21,0,.31.29.31.86V49.56q0,2-3.12,1.26Z" fill="#dd135b"/><path d="M56.47,49,74.1,12.19a3.46,3.46,0,0,1,3.35-2,3.42,3.42,0,0,1,3.28,2L98.36,49c.67,1.35.26,2-1.25,2H97a1.55,1.55,0,0,1-1.48-.94l-4.76-9.67H72q-2,0-1.17-1.8a1.57,1.57,0,0,1,1.49-.93H89.54L77.38,12.27,59.28,50.1a1.6,1.6,0,0,1-1.56.94C56.21,51,55.8,50.36,56.47,49Z" fill="#dd135b"/><path d="M104.6,13.21c-1.33,0-1.71-.94-1.17-2.81h37.43c.55,1.87.16,2.81-1.16,2.81Zm16,37.61V18.75h3.12V49.56Q123.71,51.6,120.59,50.82Z" fill="#dd135b"/><path d="M145.86,49l17.63-36.82a3.46,3.46,0,0,1,3.35-2,3.42,3.42,0,0,1,3.28,2L187.75,49c.67,1.35.26,2-1.25,2h-.08a1.54,1.54,0,0,1-1.48-.94l-4.76-9.67h-18.8q-2,0-1.17-1.8a1.56,1.56,0,0,1,1.48-.93h17.24L166.76,12.27,148.67,50.1a1.61,1.61,0,0,1-1.56.94C145.6,51,145.18,50.36,145.86,49Z" fill="#dd135b"/><path d="M201.08,10.4h35.49q3.75,0,3.75,3.82V48.54a2.12,2.12,0,0,1-2.11,2.11H212c-1.3,0-1.7-1-1.18-2.89H237.2V13.29h-33V49.56q0,2-3.12,1.26Z" fill="#dd135b"/><path d="M261.53,10.4h35a2.1,2.1,0,0,1,2.11,2.11v36a2.11,2.11,0,0,1-2.11,2.11h-35a2.1,2.1,0,0,1-2.1-2.11v-36A2.1,2.1,0,0,1,261.53,10.4Zm34,37.36V13.29h-33V47.76Z" fill="#dd135b"/><path d="M318.24,10.4h24.33Q354,10.4,354,21.94a12.1,12.1,0,0,1-2.57,8q-2.58,3.07-8.12,4.17L354.19,49c1,1.35.71,2-1,2A2.63,2.63,0,0,1,351.07,50L339.53,34.11H328.07c-.55-1.87-.16-2.81,1.16-2.81h12.33a9.34,9.34,0,0,0,6.75-2.42q2.54-2.41,2.53-7.17,0-4.29-1.95-6.4t-7.33-2.1h-20.2V49.56q0,2-3.12,1.26Z" fill="#dd135b"/><path d="M354.88,1c0-.63.33-.95,1-.95H366a.85.85,0,0,1,1,1,.85.85,0,0,1-1,1H355.88C355.21,2,354.88,1.65,354.88,1Zm4.94,9.82V4.21c0-.68.35-1,1.07-1H361c.71,0,1.07.34,1.07,1v6.63c0,.7-.38,1-1.14,1S359.82,11.54,359.82,10.84Z" fill="#dd135b"/><path d="M369.88,1c0-.67.35-1,1-1h0a1.52,1.52,0,0,1,1.17.52l4.55,5.21L381,.66A1.54,1.54,0,0,1,382.2.09h1.1c.18,0,.26.08.26.25a.68.68,0,0,1-.14.41L378.08,7a1.88,1.88,0,0,1-1.41.79,1.83,1.83,0,0,1-1.38-.77l-3.2-3.64v7.45c0,.67-.38,1-1.14,1s-1.07-.34-1.07-1Zm11.47,4.8a1.66,1.66,0,0,1,.08-.58,1.32,1.32,0,0,1,.32-.49l1.34-1.56c.14-.17.24-.25.31-.25s.16.14.16.41v7.54c0,.67-.38,1-1.14,1s-1.07-.34-1.07-1Z" fill="#dd135b"/></g></g></svg>