<svg xmlns="http://www.w3.org/2000/svg" viewBox="0 0 374.13 47.55"><g id="Layer_2" data-name="Layer 2"><g id="Layer_1-2" data-name="Layer 1"><path d="M0,7.12A4.34,4.34,0,0,1,4.76,8.48L21.53,28.83,38.14,8.09a3,3,0,0,1,2.42-1.17h1.56c.16,0,.23.07.23.23a.3.3,0,0,1-.07.23L23.48,30.86a2.75,2.75,0,0,1-1.95,1.25,2.94,2.94,0,0,1-2-1.25L3.12,11v35.1c0,1.37-1,1.79-3.12,1.27Zm39.23,14.3a4.17,4.17,0,0,1,.94-2.65l1.25-1.56a2.73,2.73,0,0,1,.62-.54c.21,0,.31.28.31.85V46.07c0,1.37-1,1.79-3.12,1.27Z" fill="#dd135b"/><path d="M56.47,45.53,74.1,8.71a3.47,3.47,0,0,1,3.35-2,3.43,3.43,0,0,1,3.28,2L98.36,45.53c.67,1.35.26,2-1.25,2H97a1.56,1.56,0,0,1-1.48-.93L90.79,37H72q-2,0-1.17-1.8a1.57,1.57,0,0,1,1.49-.93H89.54L77.38,8.79,59.28,46.62a1.61,1.61,0,0,1-1.56.93C56.21,47.55,55.8,46.88,56.47,45.53Z" fill="#dd135b"/><path d="M104.6,9.72c-1.33,0-1.71-.93-1.17-2.8h37.43c.55,1.87.16,2.8-1.16,2.8Zm16,37.62V15.26h3.12V46.07C123.71,47.44,122.67,47.86,120.59,47.34Z" fill="#dd135b"/><path d="M145.86,45.53,163.49,8.71a3.47,3.47,0,0,1,3.35-2,3.43,3.43,0,0,1,3.28,2l17.63,36.82c.67,1.35.26,2-1.25,2h-.08a1.55,1.55,0,0,1-1.48-.93L180.18,37h-18.8q-2,0-1.17-1.8a1.56,1.56,0,0,1,1.48-.93h17.24L166.76,8.79,148.67,46.62a1.62,1.62,0,0,1-1.56.93C145.6,47.55,145.18,46.88,145.86,45.53Z" fill="#dd135b"/><path d="M201.08,6.92h35.49q3.75,0,3.75,3.82V45.06a2.11,2.11,0,0,1-2.11,2.1H212c-1.3,0-1.7-1-1.18-2.88H237.2V9.8h-33V46.07c0,1.37-1,1.79-3.12,1.27Z" fill="#dd135b"/><path d="M261.53,6.92h35A2.1,2.1,0,0,1,298.66,9v36a2.1,2.1,0,0,1-2.11,2.1h-35a2.1,2.1,0,0,1-2.1-2.1V9A2.1,2.1,0,0,1,261.53,6.92Zm34,37.36V9.8h-33V44.28Z" fill="#dd135b"/><path d="M318.24,6.92h24.33Q354,6.92,354,18.46a12.1,12.1,0,0,1-2.57,8q-2.58,3.08-8.12,4.17l10.92,14.9c1,1.35.71,2-1,2a2.6,2.6,0,0,1-2.11-1.09L339.53,30.63H328.07c-.55-1.87-.16-2.81,1.16-2.81h12.33a9.34,9.34,0,0,0,6.75-2.42q2.54-2.41,2.53-7.17c0-2.86-.65-5-1.95-6.4s-3.74-2.11-7.33-2.11h-20.2V46.07c0,1.37-1,1.79-3.12,1.27Z" fill="#dd135b"/><path d="M354.88.72a.59.59,0,0,1,.67-.67h6.8a.59.59,0,0,1,.66.67.59.59,0,0,1-.66.67h-6.8A.59.59,0,0,1,354.88.72Zm3.31,6.94V3a.64.64,0,0,1,.72-.72h0a.64.64,0,0,1,.72.72V7.66c0,.5-.26.74-.77.74A.64.64,0,0,1,358.19,7.66Z" fill="#dd135b"/><path d="M364.94.7a.63.63,0,0,1,.71-.7h0a1,1,0,0,1,.79.37l3.05,3.68L372.38.46a1,1,0,0,1,.83-.4H374a.16.16,0,0,1,.18.18.51.51,0,0,1-.1.29L370.45,5a1.26,1.26,0,0,1-.95.56,1.23,1.23,0,0,1-.93-.55l-2.14-2.57V7.68c0,.48-.26.72-.77.72a.64.64,0,0,1-.72-.72Zm7.7,3.4a1.58,1.58,0,0,1,.05-.41,1.06,1.06,0,0,1,.22-.35l.9-1.1c.09-.12.16-.18.2-.18s.12.1.12.29V7.68c0,.48-.26.72-.77.72a.64.64,0,0,1-.72-.72Z" fill="#dd135b"/></g></g></svg>