<svg xmlns="http://www.w3.org/2000/svg" viewBox="0 0 354.78 40.87"><g id="Layer_2" data-name="Layer 2"><g id="Layer_1-2" data-name="Layer 1"><path d="M0,1.72A1.31,1.31,0,0,1,1.48.23,4.15,4.15,0,0,1,4.76,1.79L21.53,22.15,38.14,1.4A3,3,0,0,1,40.56.23h1.56c.16,0,.23.08.23.24a.32.32,0,0,1-.07.23L23.48,24.18a2.75,2.75,0,0,1-1.95,1.25,2.94,2.94,0,0,1-2-1.25L3.12,4.29v35.1c0,1-.55,1.48-1.64,1.48A1.31,1.31,0,0,1,0,39.39Zm39.23,13a4.15,4.15,0,0,1,.94-2.65l1.25-1.56A3,3,0,0,1,42,10c.21,0,.31.29.31.86V39.39c0,1-.54,1.48-1.63,1.48a1.31,1.31,0,0,1-1.49-1.48Z" fill="#dd135b"/><path d="M56.47,38.84,74.1,2a3.47,3.47,0,0,1,3.35-2,3.43,3.43,0,0,1,3.28,2L98.36,38.84c.67,1.36.26,2-1.25,2H97a1.56,1.56,0,0,1-1.48-.93l-4.76-9.68H72c-1.35,0-1.74-.59-1.17-1.79a1.58,1.58,0,0,1,1.49-.94H89.54L77.38,2.11,59.28,39.94a1.61,1.61,0,0,1-1.56.93C56.21,40.87,55.8,40.2,56.47,38.84Z" fill="#dd135b"/><path d="M103.19,1.64A1.25,1.25,0,0,1,104.6.23h35.1a1.24,1.24,0,0,1,1.4,1.41A1.24,1.24,0,0,1,139.7,3H104.6A1.24,1.24,0,0,1,103.19,1.64Zm17.4,37.75V10.06a1.31,1.31,0,0,1,1.48-1.48h.16a1.31,1.31,0,0,1,1.48,1.48V39.39c0,1-.55,1.48-1.64,1.48A1.31,1.31,0,0,1,120.59,39.39Z" fill="#dd135b"/><path d="M145.86,38.84,163.49,2a3.47,3.47,0,0,1,3.35-2,3.43,3.43,0,0,1,3.28,2l17.63,36.81c.67,1.36.26,2-1.25,2h-.08a1.55,1.55,0,0,1-1.48-.93l-4.76-9.68h-18.8c-1.35,0-1.74-.59-1.17-1.79a1.56,1.56,0,0,1,1.48-.94h17.24L166.76,2.11,148.67,39.94a1.62,1.62,0,0,1-1.56.93C145.6,40.87,145.18,40.2,145.86,38.84Z" fill="#dd135b"/><path d="M201.08,1.87A1.45,1.45,0,0,1,202.72.23h33.85q3.75,0,3.75,3.83V36.74q0,3.73-3.75,3.74H212c-.93,0-1.4-.49-1.4-1.48a1.24,1.24,0,0,1,1.4-1.4h25.2V3.12h-33V39.39c0,1-.54,1.48-1.64,1.48a1.31,1.31,0,0,1-1.48-1.48Z" fill="#dd135b"/><path d="M263.17.23h31.74q3.75,0,3.75,3.75V36.74q0,3.73-3.75,3.74H263.17c-2.5,0-3.74-1.25-3.74-3.74V4C259.43,1.48,260.67.23,263.17.23ZM295.54,37.6V3.12h-33V37.6Z" fill="#dd135b"/><path d="M318.24,1.87A1.45,1.45,0,0,1,319.88.23h22.69Q354,.23,354,11.78a12.07,12.07,0,0,1-2.57,8q-2.58,3.09-8.12,4.18l10.92,14.89c1,1.36.71,2-1,2a2.6,2.6,0,0,1-2.11-1.09L339.53,24h-10.3a1.24,1.24,0,0,1-1.4-1.41,1.24,1.24,0,0,1,1.4-1.4h12.33a9.38,9.38,0,0,0,6.75-2.42q2.54-2.41,2.53-7.18,0-4.29-1.95-6.39T341.56,3h-20.2V39.39c0,1-.55,1.48-1.64,1.48a1.31,1.31,0,0,1-1.48-1.48Z" fill="#dd135b"/></g></g></svg>