<svg xmlns="http://www.w3.org/2000/svg" version="1.1" xmlns:xlink="http://www.w3.org/1999/xlink" xmlns:svgjs="http://svgjs.com/svgjs" width="1440" height="560" preserveAspectRatio="none" viewBox="0 0 1440 560"><g mask="url(&quot;#SvgjsMask1016&quot;)" fill="none"><path d="M-62.72 344.2L-62.72 344.2" stroke="#132e65" stroke-width="1.5"></path><path d="M-62.72 344.2L-63.22 489.43" stroke="#132e65" stroke-width="1.5"></path><path d="M-62.72 344.2L83.61 407.35" stroke="#132e65" stroke-width="1.5"></path><path d="M-63.22 489.43L-63.22 489.43" stroke="#132e65" stroke-width="1.5"></path><path d="M-63.22 489.43L83.61 407.35" stroke="#132e65" stroke-width="1.5"></path><path d="M-81.97 683.12L-81.97 683.12" stroke="#132e65" stroke-width="1.5"></path><path d="M-81.97 683.12L70.11 685.84" stroke="#132e65" stroke-width="1.5"></path><path d="M-81.97 683.12L-63.22 489.43" stroke="#132e65" stroke-width="1.5"></path><path d="M-81.97 683.12L103.31 539.28" stroke="#132e65" stroke-width="1.5"></path><path d="M-81.97 683.12L188.39 646.18" stroke="#132e65" stroke-width="1.5"></path><path d="M83.61 407.35L83.61 407.35" stroke="#132e65" stroke-width="1.5"></path><path d="M83.61 407.35L192.52 399.2" stroke="#132e65" stroke-width="1.5"></path><path d="M83.61 407.35L103.31 539.28" stroke="#132e65" stroke-width="1.5"></path><path d="M83.61 407.35L255.58 512.94" stroke="#132e65" stroke-width="1.5"></path><path d="M103.31 539.28L103.31 539.28" stroke="#132e65" stroke-width="1.5"></path><path d="M103.31 539.28L188.39 646.18" stroke="#132e65" stroke-width="1.5"></path><path d="M103.31 539.28L70.11 685.84" stroke="#132e65" stroke-width="1.5"></path><path d="M70.11 685.84L70.11 685.84" stroke="#132e65" stroke-width="1.5"></path><path d="M70.11 685.84L188.39 646.18" stroke="#132e65" stroke-width="1.5"></path><path d="M192.52 399.2L192.52 399.2" stroke="#132e65" stroke-width="1.5"></path><path d="M192.52 399.2L255.58 512.94" stroke="#132e65" stroke-width="1.5"></path><path d="M192.52 399.2L356.8 410.91" stroke="#132e65" stroke-width="1.5"></path><path d="M192.52 399.2L103.31 539.28" stroke="#132e65" stroke-width="1.5"></path><path d="M192.52 399.2L359.77 556.58" stroke="#132e65" stroke-width="1.5"></path><path d="M255.58 512.94L255.58 512.94" stroke="#132e65" stroke-width="1.5"></path><path d="M255.58 512.94L359.77 556.58" stroke="#132e65" stroke-width="1.5"></path><path d="M255.58 512.94L356.8 410.91" stroke="#132e65" stroke-width="1.5"></path><path d="M188.39 646.18L188.39 646.18" stroke="#132e65" stroke-width="1.5"></path><path d="M188.39 646.18L255.58 512.94" stroke="#132e65" stroke-width="1.5"></path><path d="M356.8 410.91L356.8 410.91" stroke="#132e65" stroke-width="1.5"></path><path d="M356.8 410.91L359.77 556.58" stroke="#132e65" stroke-width="1.5"></path><path d="M356.8 410.91L519.78 370.27" stroke="#132e65" stroke-width="1.5"></path><path d="M359.77 556.58L359.77 556.58" stroke="#132e65" stroke-width="1.5"></path><path d="M359.77 556.58L370.9 652.13" stroke="#132e65" stroke-width="1.5"></path><path d="M370.9 652.13L370.9 652.13" stroke="#132e65" stroke-width="1.5"></path><path d="M370.9 652.13L503.21 669.25" stroke="#132e65" stroke-width="1.5"></path><path d="M519.78 370.27L519.78 370.27" stroke="#132e65" stroke-width="1.5"></path><path d="M519.78 370.27L537.74 519.83" stroke="#132e65" stroke-width="1.5"></path><path d="M519.78 370.27L704.34 378.61" stroke="#132e65" stroke-width="1.5"></path><path d="M519.78 370.27L359.77 556.58" stroke="#132e65" stroke-width="1.5"></path><path d="M519.78 370.27L711.8 538.04" stroke="#132e65" stroke-width="1.5"></path><path d="M519.78 370.27L804.07 356.05" stroke="#132e65" stroke-width="1.5"></path><path d="M537.74 519.83L537.74 519.83" stroke="#132e65" stroke-width="1.5"></path><path d="M537.74 519.83L503.21 669.25" stroke="#132e65" stroke-width="1.5"></path><path d="M537.74 519.83L711.8 538.04" stroke="#132e65" stroke-width="1.5"></path><path d="M537.74 519.83L668.52 638.32" stroke="#132e65" stroke-width="1.5"></path><path d="M503.21 669.25L503.21 669.25" stroke="#132e65" stroke-width="1.5"></path><path d="M503.21 669.25L668.52 638.32" stroke="#132e65" stroke-width="1.5"></path><path d="M704.34 378.61L704.34 378.61" stroke="#132e65" stroke-width="1.5"></path><path d="M704.34 378.61L804.07 356.05" stroke="#132e65" stroke-width="1.5"></path><path d="M704.34 378.61L799.24 255.7" stroke="#132e65" stroke-width="1.5"></path><path d="M704.34 378.61L711.8 538.04" stroke="#132e65" stroke-width="1.5"></path><path d="M704.34 378.61L840.55 546.34" stroke="#132e65" stroke-width="1.5"></path><path d="M711.8 538.04L711.8 538.04" stroke="#132e65" stroke-width="1.5"></path><path d="M711.8 538.04L668.52 638.32" stroke="#132e65" stroke-width="1.5"></path><path d="M711.8 538.04L840.55 546.34" stroke="#132e65" stroke-width="1.5"></path><path d="M668.52 638.32L668.52 638.32" stroke="#132e65" stroke-width="1.5"></path><path d="M668.52 638.32L805.18 700.33" stroke="#132e65" stroke-width="1.5"></path><path d="M668.52 638.32L840.55 546.34" stroke="#132e65" stroke-width="1.5"></path><path d="M799.24 255.7L799.24 255.7" stroke="#132e65" stroke-width="1.5"></path><path d="M799.24 255.7L804.07 356.05" stroke="#132e65" stroke-width="1.5"></path><path d="M799.24 255.7L943.56 347.02" stroke="#132e65" stroke-width="1.5"></path><path d="M799.24 255.7L976.51 234.94" stroke="#132e65" stroke-width="1.5"></path><path d="M799.24 255.7L990.48 42.08" stroke="#132e65" stroke-width="1.5"></path><path d="M799.24 255.7L840.55 546.34" stroke="#132e65" stroke-width="1.5"></path><path d="M804.07 356.05L804.07 356.05" stroke="#132e65" stroke-width="1.5"></path><path d="M840.55 546.34L840.55 546.34" stroke="#132e65" stroke-width="1.5"></path><path d="M840.55 546.34L980.9 488.73" stroke="#132e65" stroke-width="1.5"></path><path d="M840.55 546.34L950.33 652.56" stroke="#132e65" stroke-width="1.5"></path><path d="M840.55 546.34L805.18 700.33" stroke="#132e65" stroke-width="1.5"></path><path d="M805.18 700.33L805.18 700.33" stroke="#132e65" stroke-width="1.5"></path><path d="M805.18 700.33L950.33 652.56" stroke="#132e65" stroke-width="1.5"></path><path d="M805.18 700.33L711.8 538.04" stroke="#132e65" stroke-width="1.5"></path><path d="M805.18 700.33L980.9 488.73" stroke="#132e65" stroke-width="1.5"></path><path d="M805.18 700.33L503.21 669.25" stroke="#132e65" stroke-width="1.5"></path><path d="M945.31 -43L945.31 -43" stroke="#132e65" stroke-width="1.5"></path><path d="M945.31 -43L990.48 42.08" stroke="#132e65" stroke-width="1.5"></path><path d="M945.31 -43L1100.39 -38.08" stroke="#132e65" stroke-width="1.5"></path><path d="M990.48 42.08L990.48 42.08" stroke="#132e65" stroke-width="1.5"></path><path d="M990.48 42.08L1100.39 -38.08" stroke="#132e65" stroke-width="1.5"></path><path d="M990.48 42.08L1148.62 69.17" stroke="#132e65" stroke-width="1.5"></path><path d="M976.51 234.94L976.51 234.94" stroke="#132e65" stroke-width="1.5"></path><path d="M976.51 234.94L943.56 347.02" stroke="#132e65" stroke-width="1.5"></path><path d="M976.51 234.94L1102.3 257.17" stroke="#132e65" stroke-width="1.5"></path><path d="M943.56 347.02L943.56 347.02" stroke="#132e65" stroke-width="1.5"></path><path d="M943.56 347.02L804.07 356.05" stroke="#132e65" stroke-width="1.5"></path><path d="M943.56 347.02L980.9 488.73" stroke="#132e65" stroke-width="1.5"></path><path d="M943.56 347.02L1120.99 370.11" stroke="#132e65" stroke-width="1.5"></path><path d="M943.56 347.02L1102.3 257.17" stroke="#132e65" stroke-width="1.5"></path><path d="M980.9 488.73L980.9 488.73" stroke="#132e65" stroke-width="1.5"></path><path d="M980.9 488.73L1093.05 551.17" stroke="#132e65" stroke-width="1.5"></path><path d="M950.33 652.56L950.33 652.56" stroke="#132e65" stroke-width="1.5"></path><path d="M950.33 652.56L980.9 488.73" stroke="#132e65" stroke-width="1.5"></path><path d="M950.33 652.56L1093.05 551.17" stroke="#132e65" stroke-width="1.5"></path><path d="M950.33 652.56L1161.41 648.84" stroke="#132e65" stroke-width="1.5"></path><path d="M1100.39 -38.08L1100.39 -38.08" stroke="#132e65" stroke-width="1.5"></path><path d="M1100.39 -38.08L1148.62 69.17" stroke="#132e65" stroke-width="1.5"></path><path d="M1148.62 69.17L1148.62 69.17" stroke="#132e65" stroke-width="1.5"></path><path d="M1148.62 69.17L1283.08 77.7" stroke="#132e65" stroke-width="1.5"></path><path d="M1148.62 69.17L1102.3 257.17" stroke="#132e65" stroke-width="1.5"></path><path d="M1148.62 69.17L1288.16 -67.26" stroke="#132e65" stroke-width="1.5"></path><path d="M1148.62 69.17L1306.81 232.07" stroke="#132e65" stroke-width="1.5"></path><path d="M1102.3 257.17L1102.3 257.17" stroke="#132e65" stroke-width="1.5"></path><path d="M1102.3 257.17L1120.99 370.11" stroke="#132e65" stroke-width="1.5"></path><path d="M1102.3 257.17L1306.81 232.07" stroke="#132e65" stroke-width="1.5"></path><path d="M1120.99 370.11L1120.99 370.11" stroke="#132e65" stroke-width="1.5"></path><path d="M1120.99 370.11L1296.83 395.92" stroke="#132e65" stroke-width="1.5"></path><path d="M1120.99 370.11L1093.05 551.17" stroke="#132e65" stroke-width="1.5"></path><path d="M1120.99 370.11L980.9 488.73" stroke="#132e65" stroke-width="1.5"></path><path d="M1093.05 551.17L1093.05 551.17" stroke="#132e65" stroke-width="1.5"></path><path d="M1093.05 551.17L1161.41 648.84" stroke="#132e65" stroke-width="1.5"></path><path d="M1093.05 551.17L1245.67 644.3" stroke="#132e65" stroke-width="1.5"></path><path d="M1093.05 551.17L840.55 546.34" stroke="#132e65" stroke-width="1.5"></path><path d="M1161.41 648.84L1161.41 648.84" stroke="#132e65" stroke-width="1.5"></path><path d="M1161.41 648.84L1245.67 644.3" stroke="#132e65" stroke-width="1.5"></path><path d="M1161.41 648.84L980.9 488.73" stroke="#132e65" stroke-width="1.5"></path><path d="M1288.16 -67.26L1288.16 -67.26" stroke="#132e65" stroke-width="1.5"></path><path d="M1288.16 -67.26L1283.08 77.7" stroke="#132e65" stroke-width="1.5"></path><path d="M1288.16 -67.26L1462.05 -83.6" stroke="#132e65" stroke-width="1.5"></path><path d="M1288.16 -67.26L1100.39 -38.08" stroke="#132e65" stroke-width="1.5"></path><path d="M1283.08 77.7L1283.08 77.7" stroke="#132e65" stroke-width="1.5"></path><path d="M1283.08 77.7L1416.52 89.16" stroke="#132e65" stroke-width="1.5"></path><path d="M1283.08 77.7L1306.81 232.07" stroke="#132e65" stroke-width="1.5"></path><path d="M1283.08 77.7L1434.66 203.7" stroke="#132e65" stroke-width="1.5"></path><path d="M1283.08 77.7L1100.39 -38.08" stroke="#132e65" stroke-width="1.5"></path><path d="M1306.81 232.07L1306.81 232.07" stroke="#132e65" stroke-width="1.5"></path><path d="M1306.81 232.07L1434.66 203.7" stroke="#132e65" stroke-width="1.5"></path><path d="M1306.81 232.07L1296.83 395.92" stroke="#132e65" stroke-width="1.5"></path><path d="M1296.83 395.92L1296.83 395.92" stroke="#132e65" stroke-width="1.5"></path><path d="M1296.83 395.92L1434.65 362.86" stroke="#132e65" stroke-width="1.5"></path><path d="M1245.67 644.3L1245.67 644.3" stroke="#132e65" stroke-width="1.5"></path><path d="M1462.05 -83.6L1462.05 -83.6" stroke="#132e65" stroke-width="1.5"></path><path d="M1462.05 -83.6L1570.47 -109.73" stroke="#132e65" stroke-width="1.5"></path><path d="M1462.05 -83.6L1416.52 89.16" stroke="#132e65" stroke-width="1.5"></path><path d="M1462.05 -83.6L1571.79 71.28" stroke="#132e65" stroke-width="1.5"></path><path d="M1416.52 89.16L1416.52 89.16" stroke="#132e65" stroke-width="1.5"></path><path d="M1416.52 89.16L1434.66 203.7" stroke="#132e65" stroke-width="1.5"></path><path d="M1434.66 203.7L1434.66 203.7" stroke="#132e65" stroke-width="1.5"></path><path d="M1434.66 203.7L1565.99 258.78" stroke="#132e65" stroke-width="1.5"></path><path d="M1434.65 362.86L1434.65 362.86" stroke="#132e65" stroke-width="1.5"></path><path d="M1434.65 362.86L1572 393.57" stroke="#132e65" stroke-width="1.5"></path><path d="M1434.65 362.86L1434.66 203.7" stroke="#132e65" stroke-width="1.5"></path><path d="M1434.65 362.86L1565.99 258.78" stroke="#132e65" stroke-width="1.5"></path><path d="M1434.65 362.86L1306.81 232.07" stroke="#132e65" stroke-width="1.5"></path><path d="M1434.65 362.86L1395.64 549.06" stroke="#132e65" stroke-width="1.5"></path><path d="M1395.64 549.06L1395.64 549.06" stroke="#132e65" stroke-width="1.5"></path><path d="M1395.64 549.06L1448.59 656.86" stroke="#132e65" stroke-width="1.5"></path><path d="M1395.64 549.06L1541.43 528.23" stroke="#132e65" stroke-width="1.5"></path><path d="M1395.64 549.06L1245.67 644.3" stroke="#132e65" stroke-width="1.5"></path><path d="M1395.64 549.06L1296.83 395.92" stroke="#132e65" stroke-width="1.5"></path><path d="M1448.59 656.86L1448.59 656.86" stroke="#132e65" stroke-width="1.5"></path><path d="M1448.59 656.86L1555.72 661.42" stroke="#132e65" stroke-width="1.5"></path><path d="M1448.59 656.86L1541.43 528.23" stroke="#132e65" stroke-width="1.5"></path><path d="M1570.47 -109.73L1570.47 -109.73" stroke="#132e65" stroke-width="1.5"></path><path d="M1570.47 -109.73L1571.79 71.28" stroke="#132e65" stroke-width="1.5"></path><path d="M1570.47 -109.73L1416.52 89.16" stroke="#132e65" stroke-width="1.5"></path><path d="M1570.47 -109.73L1288.16 -67.26" stroke="#132e65" stroke-width="1.5"></path><path d="M1570.47 -109.73L1434.66 203.7" stroke="#132e65" stroke-width="1.5"></path><path d="M1570.47 -109.73L1283.08 77.7" stroke="#132e65" stroke-width="1.5"></path><path d="M1571.79 71.28L1571.79 71.28" stroke="#132e65" stroke-width="1.5"></path><path d="M1571.79 71.28L1416.52 89.16" stroke="#132e65" stroke-width="1.5"></path><path d="M1571.79 71.28L1565.99 258.78" stroke="#132e65" stroke-width="1.5"></path><path d="M1565.99 258.78L1565.99 258.78" stroke="#132e65" stroke-width="1.5"></path><path d="M1565.99 258.78L1572 393.57" stroke="#132e65" stroke-width="1.5"></path><path d="M1572 393.57L1572 393.57" stroke="#132e65" stroke-width="1.5"></path><path d="M1572 393.57L1541.43 528.23" stroke="#132e65" stroke-width="1.5"></path><path d="M1541.43 528.23L1541.43 528.23" stroke="#132e65" stroke-width="1.5"></path><path d="M1541.43 528.23L1555.72 661.42" stroke="#132e65" stroke-width="1.5"></path><path d="M1541.43 528.23L1434.65 362.86" stroke="#132e65" stroke-width="1.5"></path><path d="M1541.43 528.23L1565.99 258.78" stroke="#132e65" stroke-width="1.5"></path><path d="M1555.72 661.42L1555.72 661.42" stroke="#132e65" stroke-width="1.5"></path><path d="M1555.72 661.42L1395.64 549.06" stroke="#132e65" stroke-width="1.5"></path><circle r="5" cx="-62.72" cy="344.2" fill="#132e65"></circle><circle r="5" cx="-63.22" cy="489.43" fill="#132e65"></circle><circle r="5" cx="-81.97" cy="683.12" fill="#132e65"></circle><circle r="5" cx="83.61" cy="407.35" fill="#132e65"></circle><circle r="5" cx="103.31" cy="539.28" fill="#132e65"></circle><circle r="5" cx="70.11" cy="685.84" fill="#132e65"></circle><circle r="5" cx="192.52" cy="399.2" fill="#132e65"></circle><circle r="5" cx="255.58" cy="512.94" fill="#132e65"></circle><circle r="5" cx="188.39" cy="646.18" fill="#132e65"></circle><circle r="5" cx="356.8" cy="410.91" fill="#132e65"></circle><circle r="5" cx="359.77" cy="556.58" fill="#132e65"></circle><circle r="5" cx="370.9" cy="652.13" fill="#132e65"></circle><circle r="5" cx="519.78" cy="370.27" fill="#132e65"></circle><circle r="5" cx="537.74" cy="519.83" fill="#132e65"></circle><circle r="5" cx="503.21" cy="669.25" fill="#132e65"></circle><circle r="5" cx="704.34" cy="378.61" fill="#132e65"></circle><circle r="5" cx="711.8" cy="538.04" fill="#132e65"></circle><circle r="5" cx="668.52" cy="638.32" fill="#132e65"></circle><circle r="5" cx="799.24" cy="255.7" fill="#132e65"></circle><circle r="5" cx="804.07" cy="356.05" fill="#132e65"></circle><circle r="5" cx="840.55" cy="546.34" fill="#132e65"></circle><circle r="5" cx="805.18" cy="700.33" fill="#132e65"></circle><circle r="5" cx="945.31" cy="-43" fill="#132e65"></circle><circle r="5" cx="990.48" cy="42.08" fill="#132e65"></circle><circle r="5" cx="976.51" cy="234.94" fill="#132e65"></circle><circle r="5" cx="943.56" cy="347.02" fill="#132e65"></circle><circle r="5" cx="980.9" cy="488.73" fill="#132e65"></circle><circle r="5" cx="950.33" cy="652.56" fill="#132e65"></circle><circle r="5" cx="1100.39" cy="-38.08" fill="#132e65"></circle><circle r="5" cx="1148.62" cy="69.17" fill="#132e65"></circle><circle r="5" cx="1102.3" cy="257.17" fill="#132e65"></circle><circle r="5" cx="1120.99" cy="370.11" fill="#132e65"></circle><circle r="5" cx="1093.05" cy="551.17" fill="#132e65"></circle><circle r="5" cx="1161.41" cy="648.84" fill="#132e65"></circle><circle r="5" cx="1288.16" cy="-67.26" fill="#132e65"></circle><circle r="5" cx="1283.08" cy="77.7" fill="#132e65"></circle><circle r="5" cx="1306.81" cy="232.07" fill="#132e65"></circle><circle r="5" cx="1296.83" cy="395.92" fill="#132e65"></circle><circle r="5" cx="1245.67" cy="644.3" fill="#132e65"></circle><circle r="5" cx="1462.05" cy="-83.6" fill="#132e65"></circle><circle r="5" cx="1416.52" cy="89.16" fill="#132e65"></circle><circle r="5" cx="1434.66" cy="203.7" fill="#132e65"></circle><circle r="5" cx="1434.65" cy="362.86" fill="#132e65"></circle><circle r="5" cx="1395.64" cy="549.06" fill="#132e65"></circle><circle r="5" cx="1448.59" cy="656.86" fill="#132e65"></circle><circle r="5" cx="1570.47" cy="-109.73" fill="#132e65"></circle><circle r="5" cx="1571.79" cy="71.28" fill="#132e65"></circle><circle r="5" cx="1565.99" cy="258.78" fill="#132e65"></circle><circle r="5" cx="1572" cy="393.57" fill="#132e65"></circle><circle r="5" cx="1541.43" cy="528.23" fill="#132e65"></circle><circle r="5" cx="1555.72" cy="661.42" fill="#132e65"></circle><path d="M-83.93 531.09L-83.93 531.09" stroke="hsl(228.5, 77.2%, 51.5%)" stroke-width="1.5"></path><path d="M-83.93 531.09L-96.53 652.8" stroke="hsl(228.5, 77.2%, 51.5%)" stroke-width="1.5"></path><path d="M-83.93 531.09L81.1 496.73" stroke="hsl(228.5, 77.2%, 51.5%)" stroke-width="1.5"></path><path d="M-83.93 531.09L252.59 556.86" stroke="hsl(228.5, 77.2%, 51.5%)" stroke-width="1.5"></path><path d="M252.59 556.86L252.59 556.86" stroke="hsl(228.5, 77.2%, 51.5%)" stroke-width="1.5"></path><path d="M252.59 556.86L361.56 535.04" stroke="hsl(228.5, 77.2%, 51.5%)" stroke-width="1.5"></path><path d="M252.59 556.86L385.48 656.42" stroke="hsl(228.5, 77.2%, 51.5%)" stroke-width="1.5"></path><path d="M361.56 535.04L361.56 535.04" stroke="hsl(228.5, 77.2%, 51.5%)" stroke-width="1.5"></path><path d="M361.56 535.04L385.48 656.42" stroke="hsl(228.5, 77.2%, 51.5%)" stroke-width="1.5"></path><path d="M1153.17 519.32L1153.17 519.32" stroke="hsl(228.5, 77.2%, 51.5%)" stroke-width="1.5"></path><path d="M1153.17 519.32L1296.78 525.88" stroke="hsl(228.5, 77.2%, 51.5%)" stroke-width="1.5"></path><path d="M1153.17 519.32L1127.93 669.62" stroke="hsl(228.5, 77.2%, 51.5%)" stroke-width="1.5"></path><path d="M1153.17 519.32L983.66 523.49" stroke="hsl(228.5, 77.2%, 51.5%)" stroke-width="1.5"></path><path d="M1153.17 519.32L1125.1 350.74" stroke="hsl(228.5, 77.2%, 51.5%)" stroke-width="1.5"></path><path d="M1153.17 519.32L985.29 391.12" stroke="hsl(228.5, 77.2%, 51.5%)" stroke-width="1.5"></path><path d="M1153.17 519.32L1303.95 687.39" stroke="hsl(228.5, 77.2%, 51.5%)" stroke-width="1.5"></path><path d="M1294.74 -105.47L1294.74 -105.47" stroke="hsl(228.5, 77.2%, 51.5%)" stroke-width="1.5"></path><path d="M1294.74 -105.47L1426.12 -55.15" stroke="hsl(228.5, 77.2%, 51.5%)" stroke-width="1.5"></path><path d="M1294.74 -105.47L1287.44 44.85" stroke="hsl(228.5, 77.2%, 51.5%)" stroke-width="1.5"></path><path d="M1274.26 233.08L1274.26 233.08" stroke="hsl(228.5, 77.2%, 51.5%)" stroke-width="1.5"></path><path d="M1274.26 233.08L1098.01 232.07" stroke="hsl(228.5, 77.2%, 51.5%)" stroke-width="1.5"></path><path d="M1274.26 233.08L1414.04 343.31" stroke="hsl(228.5, 77.2%, 51.5%)" stroke-width="1.5"></path><path d="M1274.26 233.08L1287.44 44.85" stroke="hsl(228.5, 77.2%, 51.5%)" stroke-width="1.5"></path><path d="M1274.26 233.08L1125.1 350.74" stroke="hsl(228.5, 77.2%, 51.5%)" stroke-width="1.5"></path><path d="M1296.78 525.88L1296.78 525.88" stroke="hsl(228.5, 77.2%, 51.5%)" stroke-width="1.5"></path><path d="M1296.78 525.88L1456.64 517.81" stroke="hsl(228.5, 77.2%, 51.5%)" stroke-width="1.5"></path><path d="M1296.78 525.88L1303.95 687.39" stroke="hsl(228.5, 77.2%, 51.5%)" stroke-width="1.5"></path><path d="M1296.78 525.88L1420.16 639.24" stroke="hsl(228.5, 77.2%, 51.5%)" stroke-width="1.5"></path><path d="M1420.16 639.24L1420.16 639.24" stroke="hsl(228.5, 77.2%, 51.5%)" stroke-width="1.5"></path><path d="M1420.16 639.24L1303.95 687.39" stroke="hsl(228.5, 77.2%, 51.5%)" stroke-width="1.5"></path><path d="M1420.16 639.24L1456.64 517.81" stroke="hsl(228.5, 77.2%, 51.5%)" stroke-width="1.5"></path><path d="M1572.42 532.69L1572.42 532.69" stroke="hsl(228.5, 77.2%, 51.5%)" stroke-width="1.5"></path><path d="M1572.42 532.69L1456.64 517.81" stroke="hsl(228.5, 77.2%, 51.5%)" stroke-width="1.5"></path><path d="M-96.53 652.8L-96.53 652.8" stroke="hsl(228.5, 77.2%, 51.5%)" stroke-width="1.5"></path><path d="M-96.53 652.8L81.1 496.73" stroke="hsl(228.5, 77.2%, 51.5%)" stroke-width="1.5"></path><path d="M-96.53 652.8L252.59 556.86" stroke="hsl(228.5, 77.2%, 51.5%)" stroke-width="1.5"></path><path d="M-96.53 652.8L361.56 535.04" stroke="hsl(228.5, 77.2%, 51.5%)" stroke-width="1.5"></path><path d="M-96.53 652.8L385.48 656.42" stroke="hsl(228.5, 77.2%, 51.5%)" stroke-width="1.5"></path><path d="M81.1 496.73L81.1 496.73" stroke="hsl(228.5, 77.2%, 51.5%)" stroke-width="1.5"></path><path d="M81.1 496.73L252.59 556.86" stroke="hsl(228.5, 77.2%, 51.5%)" stroke-width="1.5"></path><path d="M385.48 656.42L385.48 656.42" stroke="hsl(228.5, 77.2%, 51.5%)" stroke-width="1.5"></path><path d="M385.48 656.42L528.99 679.76" stroke="hsl(228.5, 77.2%, 51.5%)" stroke-width="1.5"></path><path d="M385.48 656.42L524.64 538.62" stroke="hsl(228.5, 77.2%, 51.5%)" stroke-width="1.5"></path><path d="M385.48 656.42L645.42 652.43" stroke="hsl(228.5, 77.2%, 51.5%)" stroke-width="1.5"></path><path d="M385.48 656.42L681.68 546.87" stroke="hsl(228.5, 77.2%, 51.5%)" stroke-width="1.5"></path><path d="M524.64 538.62L524.64 538.62" stroke="hsl(228.5, 77.2%, 51.5%)" stroke-width="1.5"></path><path d="M524.64 538.62L528.99 679.76" stroke="hsl(228.5, 77.2%, 51.5%)" stroke-width="1.5"></path><path d="M524.64 538.62L681.68 546.87" stroke="hsl(228.5, 77.2%, 51.5%)" stroke-width="1.5"></path><path d="M524.64 538.62L361.56 535.04" stroke="hsl(228.5, 77.2%, 51.5%)" stroke-width="1.5"></path><path d="M524.64 538.62L645.42 652.43" stroke="hsl(228.5, 77.2%, 51.5%)" stroke-width="1.5"></path><path d="M528.99 679.76L528.99 679.76" stroke="hsl(228.5, 77.2%, 51.5%)" stroke-width="1.5"></path><path d="M528.99 679.76L645.42 652.43" stroke="hsl(228.5, 77.2%, 51.5%)" stroke-width="1.5"></path><path d="M528.99 679.76L681.68 546.87" stroke="hsl(228.5, 77.2%, 51.5%)" stroke-width="1.5"></path><path d="M681.68 546.87L681.68 546.87" stroke="hsl(228.5, 77.2%, 51.5%)" stroke-width="1.5"></path><path d="M681.68 546.87L645.42 652.43" stroke="hsl(228.5, 77.2%, 51.5%)" stroke-width="1.5"></path><path d="M681.68 546.87L845.16 553.66" stroke="hsl(228.5, 77.2%, 51.5%)" stroke-width="1.5"></path><path d="M681.68 546.87L809.24 649.46" stroke="hsl(228.5, 77.2%, 51.5%)" stroke-width="1.5"></path><path d="M645.42 652.43L645.42 652.43" stroke="hsl(228.5, 77.2%, 51.5%)" stroke-width="1.5"></path><path d="M645.42 652.43L809.24 649.46" stroke="hsl(228.5, 77.2%, 51.5%)" stroke-width="1.5"></path><path d="M645.42 652.43L845.16 553.66" stroke="hsl(228.5, 77.2%, 51.5%)" stroke-width="1.5"></path><path d="M824.58 386.86L824.58 386.86" stroke="hsl(228.5, 77.2%, 51.5%)" stroke-width="1.5"></path><path d="M824.58 386.86L985.29 391.12" stroke="hsl(228.5, 77.2%, 51.5%)" stroke-width="1.5"></path><path d="M824.58 386.86L845.16 553.66" stroke="hsl(228.5, 77.2%, 51.5%)" stroke-width="1.5"></path><path d="M824.58 386.86L983.66 523.49" stroke="hsl(228.5, 77.2%, 51.5%)" stroke-width="1.5"></path><path d="M824.58 386.86L681.68 546.87" stroke="hsl(228.5, 77.2%, 51.5%)" stroke-width="1.5"></path><path d="M824.58 386.86L809.24 649.46" stroke="hsl(228.5, 77.2%, 51.5%)" stroke-width="1.5"></path><path d="M824.58 386.86L1125.1 350.74" stroke="hsl(228.5, 77.2%, 51.5%)" stroke-width="1.5"></path><path d="M845.16 553.66L845.16 553.66" stroke="hsl(228.5, 77.2%, 51.5%)" stroke-width="1.5"></path><path d="M845.16 553.66L809.24 649.46" stroke="hsl(228.5, 77.2%, 51.5%)" stroke-width="1.5"></path><path d="M845.16 553.66L983.66 523.49" stroke="hsl(228.5, 77.2%, 51.5%)" stroke-width="1.5"></path><path d="M845.16 553.66L956.86 696.38" stroke="hsl(228.5, 77.2%, 51.5%)" stroke-width="1.5"></path><path d="M809.24 649.46L809.24 649.46" stroke="hsl(228.5, 77.2%, 51.5%)" stroke-width="1.5"></path><path d="M809.24 649.46L956.86 696.38" stroke="hsl(228.5, 77.2%, 51.5%)" stroke-width="1.5"></path><path d="M809.24 649.46L983.66 523.49" stroke="hsl(228.5, 77.2%, 51.5%)" stroke-width="1.5"></path><path d="M985.29 391.12L985.29 391.12" stroke="hsl(228.5, 77.2%, 51.5%)" stroke-width="1.5"></path><path d="M985.29 391.12L983.66 523.49" stroke="hsl(228.5, 77.2%, 51.5%)" stroke-width="1.5"></path><path d="M985.29 391.12L1125.1 350.74" stroke="hsl(228.5, 77.2%, 51.5%)" stroke-width="1.5"></path><path d="M983.66 523.49L983.66 523.49" stroke="hsl(228.5, 77.2%, 51.5%)" stroke-width="1.5"></path><path d="M983.66 523.49L956.86 696.38" stroke="hsl(228.5, 77.2%, 51.5%)" stroke-width="1.5"></path><path d="M983.66 523.49L1127.93 669.62" stroke="hsl(228.5, 77.2%, 51.5%)" stroke-width="1.5"></path><path d="M956.86 696.38L956.86 696.38" stroke="hsl(228.5, 77.2%, 51.5%)" stroke-width="1.5"></path><path d="M956.86 696.38L1127.93 669.62" stroke="hsl(228.5, 77.2%, 51.5%)" stroke-width="1.5"></path><path d="M956.86 696.38L1153.17 519.32" stroke="hsl(228.5, 77.2%, 51.5%)" stroke-width="1.5"></path><path d="M1098.01 232.07L1098.01 232.07" stroke="hsl(228.5, 77.2%, 51.5%)" stroke-width="1.5"></path><path d="M1098.01 232.07L1125.1 350.74" stroke="hsl(228.5, 77.2%, 51.5%)" stroke-width="1.5"></path><path d="M1098.01 232.07L985.29 391.12" stroke="hsl(228.5, 77.2%, 51.5%)" stroke-width="1.5"></path><path d="M1098.01 232.07L1287.44 44.85" stroke="hsl(228.5, 77.2%, 51.5%)" stroke-width="1.5"></path><path d="M1098.01 232.07L1153.17 519.32" stroke="hsl(228.5, 77.2%, 51.5%)" stroke-width="1.5"></path><path d="M1098.01 232.07L983.66 523.49" stroke="hsl(228.5, 77.2%, 51.5%)" stroke-width="1.5"></path><path d="M1125.1 350.74L1125.1 350.74" stroke="hsl(228.5, 77.2%, 51.5%)" stroke-width="1.5"></path><path d="M1127.93 669.62L1127.93 669.62" stroke="hsl(228.5, 77.2%, 51.5%)" stroke-width="1.5"></path><path d="M1127.93 669.62L1303.95 687.39" stroke="hsl(228.5, 77.2%, 51.5%)" stroke-width="1.5"></path><path d="M1127.93 669.62L1296.78 525.88" stroke="hsl(228.5, 77.2%, 51.5%)" stroke-width="1.5"></path><path d="M1287.44 44.85L1287.44 44.85" stroke="hsl(228.5, 77.2%, 51.5%)" stroke-width="1.5"></path><path d="M1287.44 44.85L1409.88 57.78" stroke="hsl(228.5, 77.2%, 51.5%)" stroke-width="1.5"></path><path d="M1287.44 44.85L1426.12 -55.15" stroke="hsl(228.5, 77.2%, 51.5%)" stroke-width="1.5"></path><path d="M1303.95 687.39L1303.95 687.39" stroke="hsl(228.5, 77.2%, 51.5%)" stroke-width="1.5"></path><path d="M1426.12 -55.15L1426.12 -55.15" stroke="hsl(228.5, 77.2%, 51.5%)" stroke-width="1.5"></path><path d="M1426.12 -55.15L1409.88 57.78" stroke="hsl(228.5, 77.2%, 51.5%)" stroke-width="1.5"></path><path d="M1426.12 -55.15L1549.99 -94.41" stroke="hsl(228.5, 77.2%, 51.5%)" stroke-width="1.5"></path><path d="M1426.12 -55.15L1547.08 70" stroke="hsl(228.5, 77.2%, 51.5%)" stroke-width="1.5"></path><path d="M1426.12 -55.15L1576.14 200.76" stroke="hsl(228.5, 77.2%, 51.5%)" stroke-width="1.5"></path><path d="M1409.88 57.78L1409.88 57.78" stroke="hsl(228.5, 77.2%, 51.5%)" stroke-width="1.5"></path><path d="M1409.88 57.78L1547.08 70" stroke="hsl(228.5, 77.2%, 51.5%)" stroke-width="1.5"></path><path d="M1409.88 57.78L1294.74 -105.47" stroke="hsl(228.5, 77.2%, 51.5%)" stroke-width="1.5"></path><path d="M1409.88 57.78L1549.99 -94.41" stroke="hsl(228.5, 77.2%, 51.5%)" stroke-width="1.5"></path><path d="M1409.88 57.78L1576.14 200.76" stroke="hsl(228.5, 77.2%, 51.5%)" stroke-width="1.5"></path><path d="M1414.04 343.31L1414.04 343.31" stroke="hsl(228.5, 77.2%, 51.5%)" stroke-width="1.5"></path><path d="M1414.04 343.31L1456.64 517.81" stroke="hsl(228.5, 77.2%, 51.5%)" stroke-width="1.5"></path><path d="M1414.04 343.31L1603.29 406.88" stroke="hsl(228.5, 77.2%, 51.5%)" stroke-width="1.5"></path><path d="M1414.04 343.31L1576.14 200.76" stroke="hsl(228.5, 77.2%, 51.5%)" stroke-width="1.5"></path><path d="M1414.04 343.31L1296.78 525.88" stroke="hsl(228.5, 77.2%, 51.5%)" stroke-width="1.5"></path><path d="M1414.04 343.31L1572.42 532.69" stroke="hsl(228.5, 77.2%, 51.5%)" stroke-width="1.5"></path><path d="M1456.64 517.81L1456.64 517.81" stroke="hsl(228.5, 77.2%, 51.5%)" stroke-width="1.5"></path><path d="M1549.99 -94.41L1549.99 -94.41" stroke="hsl(228.5, 77.2%, 51.5%)" stroke-width="1.5"></path><path d="M1549.99 -94.41L1547.08 70" stroke="hsl(228.5, 77.2%, 51.5%)" stroke-width="1.5"></path><path d="M1547.08 70L1547.08 70" stroke="hsl(228.5, 77.2%, 51.5%)" stroke-width="1.5"></path><path d="M1547.08 70L1576.14 200.76" stroke="hsl(228.5, 77.2%, 51.5%)" stroke-width="1.5"></path><path d="M1547.08 70L1287.44 44.85" stroke="hsl(228.5, 77.2%, 51.5%)" stroke-width="1.5"></path><path d="M1576.14 200.76L1576.14 200.76" stroke="hsl(228.5, 77.2%, 51.5%)" stroke-width="1.5"></path><path d="M1576.14 200.76L1603.29 406.88" stroke="hsl(228.5, 77.2%, 51.5%)" stroke-width="1.5"></path><path d="M1576.14 200.76L1549.99 -94.41" stroke="hsl(228.5, 77.2%, 51.5%)" stroke-width="1.5"></path><path d="M1603.29 406.88L1603.29 406.88" stroke="hsl(228.5, 77.2%, 51.5%)" stroke-width="1.5"></path><path d="M1603.29 406.88L1572.42 532.69" stroke="hsl(228.5, 77.2%, 51.5%)" stroke-width="1.5"></path><path d="M1603.29 406.88L1456.64 517.81" stroke="hsl(228.5, 77.2%, 51.5%)" stroke-width="1.5"></path><path d="M1608.36 659.73L1608.36 659.73" stroke="hsl(228.5, 77.2%, 51.5%)" stroke-width="1.5"></path><path d="M1608.36 659.73L1572.42 532.69" stroke="hsl(228.5, 77.2%, 51.5%)" stroke-width="1.5"></path><path d="M1608.36 659.73L1420.16 639.24" stroke="hsl(228.5, 77.2%, 51.5%)" stroke-width="1.5"></path><path d="M1608.36 659.73L1456.64 517.81" stroke="hsl(228.5, 77.2%, 51.5%)" stroke-width="1.5"></path><path d="M1608.36 659.73L1603.29 406.88" stroke="hsl(228.5, 77.2%, 51.5%)" stroke-width="1.5"></path><path d="M1608.36 659.73L1303.95 687.39" stroke="hsl(228.5, 77.2%, 51.5%)" stroke-width="1.5"></path><circle r="25" cx="-83.93" cy="531.09" fill="url(#SvgjsRadialGradient1017)"></circle><circle r="25" cx="252.59" cy="556.86" fill="url(#SvgjsRadialGradient1017)"></circle><circle r="25" cx="361.56" cy="535.04" fill="url(#SvgjsRadialGradient1017)"></circle><circle r="25" cx="1153.17" cy="519.32" fill="url(#SvgjsRadialGradient1017)"></circle><circle r="25" cx="1294.74" cy="-105.47" fill="url(#SvgjsRadialGradient1017)"></circle><circle r="25" cx="1274.26" cy="233.08" fill="url(#SvgjsRadialGradient1017)"></circle><circle r="25" cx="1296.78" cy="525.88" fill="url(#SvgjsRadialGradient1017)"></circle><circle r="25" cx="1420.16" cy="639.24" fill="url(#SvgjsRadialGradient1017)"></circle><circle r="25" cx="1572.42" cy="532.69" fill="url(#SvgjsRadialGradient1017)"></circle><circle r="5" cx="-96.53" cy="652.8" fill="#8b9ad9"></circle><circle r="5" cx="81.1" cy="496.73" fill="#8b9ad9"></circle><circle r="5" cx="385.48" cy="656.42" fill="#8b9ad9"></circle><circle r="5" cx="524.64" cy="538.62" fill="#8b9ad9"></circle><circle r="5" cx="528.99" cy="679.76" fill="#8b9ad9"></circle><circle r="5" cx="681.68" cy="546.87" fill="#8b9ad9"></circle><circle r="5" cx="645.42" cy="652.43" fill="#8b9ad9"></circle><circle r="5" cx="824.58" cy="386.86" fill="#8b9ad9"></circle><circle r="5" cx="845.16" cy="553.66" fill="#8b9ad9"></circle><circle r="5" cx="809.24" cy="649.46" fill="#8b9ad9"></circle><circle r="5" cx="985.29" cy="391.12" fill="#8b9ad9"></circle><circle r="5" cx="983.66" cy="523.49" fill="#8b9ad9"></circle><circle r="5" cx="956.86" cy="696.38" fill="#8b9ad9"></circle><circle r="5" cx="1098.01" cy="232.07" fill="#8b9ad9"></circle><circle r="5" cx="1125.1" cy="350.74" fill="#8b9ad9"></circle><circle r="5" cx="1127.93" cy="669.62" fill="#8b9ad9"></circle><circle r="5" cx="1287.44" cy="44.85" fill="#8b9ad9"></circle><circle r="5" cx="1303.95" cy="687.39" fill="#8b9ad9"></circle><circle r="5" cx="1426.12" cy="-55.15" fill="#8b9ad9"></circle><circle r="5" cx="1409.88" cy="57.78" fill="#8b9ad9"></circle><circle r="5" cx="1414.04" cy="343.31" fill="#8b9ad9"></circle><circle r="5" cx="1456.64" cy="517.81" fill="#8b9ad9"></circle><circle r="5" cx="1549.99" cy="-94.41" fill="#8b9ad9"></circle><circle r="5" cx="1547.08" cy="70" fill="#8b9ad9"></circle><circle r="5" cx="1576.14" cy="200.76" fill="#8b9ad9"></circle><circle r="5" cx="1603.29" cy="406.88" fill="#8b9ad9"></circle><circle r="5" cx="1608.36" cy="659.73" fill="#8b9ad9"></circle></g><defs><mask id="SvgjsMask1016"><rect width="1440" height="560" fill="#ffffff"></rect></mask><radialGradient id="SvgjsRadialGradient1017"><stop stop-color="#ffffff" offset="0.1"></stop><stop stop-color="#1735b3" offset="0.2"></stop><stop stop-color="rgba(23, 53, 179, 0)" offset="1"></stop></radialGradient></defs></svg>