<?xml version="1.0" encoding="utf-8"?>
<!-- Generator: Adobe Illustrator 19.0.0, SVG Export Plug-In . SVG Version: 6.00 Build 0)  -->
<svg version="1.1" id="Layer_1" xmlns="http://www.w3.org/2000/svg" xmlns:xlink="http://www.w3.org/1999/xlink" x="0px" y="0px"
	 viewBox="0 0 512 512" style="enable-background:new 0 0 512 512;" xml:space="preserve">
<style type="text/css">
	.st0{fill:#339FF8;}
</style>
<g>
	<path class="st0" d="M259.6,434.9c-37.4,0-72.1-11.5-100.9-31.1c-13.5,7.1-44,8.7-57.3,7.1c-19.3-2.3-39.6-18.3-20.1-33.9
		c30.2-24.1,22.1-33.7,22.1-33.7C89,317.6,80.8,287.8,80.8,256c0-98.8,80.1-178.9,178.9-178.9c98.8,0,178.9,80.1,178.9,178.9
		S358.4,434.9,259.6,434.9z M259.6,103.2c-84.9,0-153.8,68.9-153.8,153.8c0,29.2,8.2,56.6,22.3,79.9c0,0,10.1,26.1-15.8,45.6
		c16.2,5.5,50.4-4.6,52.1-4.6c26.2,20.6,59.2,32.9,95.1,32.9c84.9,0,153.8-68.9,153.8-153.8S344.6,103.2,259.6,103.2z M341.9,301.1
		c-18.8,0-33.3-12.4-33.3-33.2c0-20.8,13.7-34.1,34.4-34.1c19.8,0,32.9,13.6,32.9,33C375.9,290.3,359.2,301.1,341.9,301.1z
		 M342.5,248c-9.6,0-13.2,9.9-13.2,19.4c0,11.1,4.6,19.4,13.2,19.4c7.8,0,12.8-7.8,12.8-19.4C355.2,257.7,351.6,248,342.5,248z
		 M286.5,299.6c0,0-7.6,0-10.8,0c-5.1,0-4.1-7.4-4.1-7.4v-27.7c0-9.4-3-14.8-9.5-14.8c-4.6,0-7.9,3.2-9.2,7
		c-0.5,1.5-0.8,3.6-0.8,5.1v31.4c0,0,0.1,6.3-5.5,6.3c-4.1,0-8.9,0-8.9,0s-5.1-0.4-5.1-6.9c0-10.5,0-29.3,0-29.3
		c0-8.2-2.9-13.7-9.2-13.7c-5.1,0-8.2,4-9.4,7.3c-0.7,1.6-0.8,3.4-0.8,5v30.7c0,0,0.7,6.9-4.5,6.9c-2.6,0-5.8,0-8.6,0
		c-6.4,0-6.4-6.9-6.4-6.9v-37c0-6.3-0.4-16.7-0.4-16.7s-0.1-3.9,4.1-3.9c2.6,0,5.8,0,8.4,0c4,0,4.7,3.9,4.7,3.9l0.5,4.8h0.4
		c2.8-4.1,8.4-10.2,19.5-10.2c8.3,0,14.9,4.2,17.7,10.9h0.3c2.4-3.3,5.3-5.9,8.3-7.8c3.6-2.1,7.5-3.2,12.3-3.2
		c12.4,0,21.7,8.7,21.7,28c0,0,0,20.2,0,31.1C291.1,299.2,286.5,299.6,286.5,299.6z M162.2,221.8c-6.3,0-10.5-4.5-10.4-10
		c-0.1-5.8,4.1-10.2,10.5-10.2s10.5,4.4,10.7,10.2C173,217.3,168.8,221.8,162.2,221.8z M156.4,235.2c4.6,0,11.6,0,11.6,0
		s4.4,0,4.4,5c0,11.7,0,53.7,0,53.7s0.3,5.8-4.6,5.8c-4.9,0-11.9,0-11.9,0s-3.5-0.2-3.5-5c0-14.4,0-55.4,0-55.4
		S152.3,235.2,156.4,235.2z"/>
</g>
</svg>
