<?xml version="1.0" standalone="no"?>
<!DOCTYPE svg PUBLIC "-//W3C//DTD SVG 20010904//EN"
 "http://www.w3.org/TR/2001/REC-SVG-20010904/DTD/svg10.dtd">
<svg version="1.0" xmlns="http://www.w3.org/2000/svg"
 width="786.000000pt" height="768.000000pt" viewBox="0 0 786.000000 768.000000"
 preserveAspectRatio="xMidYMid meet">

<g transform="translate(0.000000,768.000000) scale(0.100000,-0.100000)"
fill="#000000" stroke="none">
<path d="M2233 7666 c-59 -19 -104 -49 -152 -101 -143 -156 -109 -405 70 -520
54 -35 142 -57 207 -53 l56 3 348 -720 c190 -396 347 -724 347 -730 0 -5 -40
-35 -90 -65 -331 -201 -610 -551 -726 -908 -16 -46 -33 -86 -38 -88 -6 -3
-206 40 -445 95 -239 55 -589 134 -776 177 l-342 78 -5 49 c-14 110 -92 217
-195 265 -49 23 -70 27 -152 27 -84 0 -101 -3 -148 -28 -70 -37 -128 -97 -161
-166 -22 -47 -26 -70 -26 -141 0 -76 4 -93 33 -152 58 -119 154 -180 289 -186
95 -5 148 10 218 58 40 28 97 92 107 121 2 5 177 -30 398 -80 217 -50 569
-130 782 -179 213 -49 390 -90 392 -93 2 -2 0 -26 -5 -54 -4 -27 -11 -108 -15
-180 -18 -348 79 -705 273 -1004 30 -46 53 -87 51 -91 -2 -4 -283 -231 -626
-505 l-624 -497 -66 33 c-60 31 -73 34 -156 34 -72 0 -101 -5 -138 -22 -67
-30 -143 -105 -175 -172 -24 -48 -27 -69 -27 -146 -1 -79 3 -97 27 -145 39
-75 98 -133 171 -166 85 -39 196 -40 277 -2 159 73 238 239 195 407 -9 35 -15
65 -14 66 2 1 283 225 626 498 342 273 625 497 628 497 4 0 52 -44 108 -97
233 -222 506 -368 816 -438 58 -13 132 -26 165 -30 33 -3 79 -8 103 -11 l42
-5 0 -807 0 -808 -64 -28 c-170 -73 -250 -267 -184 -443 29 -79 112 -162 191
-191 131 -49 271 -20 368 77 169 169 116 458 -101 555 l-60 27 0 809 0 809 33
5 c17 3 61 8 97 11 138 13 336 68 493 136 184 79 349 192 507 344 l95 93 623
-498 c342 -273 625 -499 628 -502 3 -3 -2 -32 -12 -64 -46 -159 32 -331 184
-406 59 -29 76 -33 147 -33 64 1 91 6 135 26 100 47 164 119 194 219 38 129 0
260 -104 354 -69 62 -121 81 -225 81 -82 0 -97 -3 -155 -32 -54 -26 -68 -30
-82 -20 -34 24 -1194 951 -1216 972 l-24 22 52 79 c204 311 305 706 272 1066
-7 73 -15 144 -18 158 l-5 25 758 173 c417 94 772 175 788 178 27 4 32 1 53
-35 29 -53 108 -115 172 -136 74 -25 199 -18 265 15 66 32 131 99 163 168 23
48 27 71 27 142 0 71 -4 94 -26 141 -33 69 -91 129 -161 166 -47 25 -64 28
-148 28 -82 0 -103 -4 -152 -27 -102 -47 -180 -152 -194 -260 -6 -45 -9 -49
-43 -57 -36 -10 -1478 -340 -1516 -348 -17 -3 -24 8 -48 84 -117 369 -406 725
-758 934 l-67 40 102 212 c56 117 214 444 350 728 l248 515 58 -4 c144 -10
275 70 337 206 120 260 -127 547 -401 468 -106 -31 -177 -93 -223 -194 -34
-72 -40 -153 -19 -227 20 -67 37 -96 83 -146 l33 -35 -351 -731 -351 -730 -75
28 c-184 71 -371 103 -603 103 -231 0 -425 -33 -608 -104 -39 -15 -74 -25 -76
-21 -2 3 -150 310 -329 681 -178 371 -335 696 -348 723 l-23 47 36 38 c93 94
121 255 66 374 -58 124 -167 198 -303 205 -41 2 -87 -3 -112 -11z m225 -133
c126 -78 147 -245 44 -355 -140 -150 -385 -63 -400 143 -14 187 196 311 356
212z m3144 21 c51 -17 108 -67 135 -117 12 -21 18 -55 18 -103 0 -61 -4 -77
-30 -120 -78 -126 -254 -150 -359 -48 -56 54 -70 89 -71 169 0 59 4 78 28 117
58 100 169 140 279 102z m-1535 -2369 c101 -9 242 -48 349 -99 350 -166 593
-483 659 -860 19 -112 19 -298 0 -407 -83 -476 -446 -853 -916 -949 -147 -31
-379 -25 -522 13 -192 51 -378 159 -522 302 -228 226 -345 510 -345 835 0 326
117 609 345 835 147 146 323 248 517 300 100 26 253 45 323 39 22 -2 72 -6
112 -9z m-3634 -128 c90 -38 141 -117 141 -217 0 -135 -96 -233 -229 -233 -74
0 -128 25 -178 83 -101 118 -56 303 88 366 39 17 137 18 178 1z m7170 0 c90
-38 141 -117 141 -217 0 -135 -96 -233 -229 -233 -133 0 -229 98 -229 233 0
98 50 178 134 214 44 19 140 20 183 3z m-6442 -3125 c194 -100 158 -380 -54
-433 -80 -20 -148 1 -212 65 -59 59 -81 119 -72 191 23 165 192 253 338 177z
m5745 4 c56 -26 98 -74 120 -133 31 -88 11 -167 -61 -239 -43 -43 -61 -54
-109 -65 -136 -30 -266 61 -282 197 -22 185 164 319 332 240z m-2915 -1370
c51 -9 123 -67 148 -119 28 -57 29 -153 2 -205 -104 -203 -400 -162 -441 61
-16 85 26 184 98 232 38 25 112 46 142 40 8 -2 31 -6 51 -9z"/>
</g>
</svg>
