<?xml version="1.0" encoding="iso-8859-1"?>
<!-- Generator: Adobe Illustrator 19.0.0, SVG Export Plug-In . SVG Version: 6.00 Build 0)  -->
<svg version="1.1" id="Capa_1" xmlns="http://www.w3.org/2000/svg" xmlns:xlink="http://www.w3.org/1999/xlink" x="0px" y="0px"
	 viewBox="0 0 512 512" style="enable-background:new 0 0 512 512;" xml:space="preserve">
<g>
	<g>
		<g>
			<path d="M443.733,0H68.267c-14.132,0.015-25.585,11.468-25.6,25.6v284.2c0,0.511,0.046,1.022,0.137,1.525
				c0.283,1.558,30.383,156.592,211.183,200.433c1.322,0.322,2.703,0.322,4.025,0c180.796-43.842,210.9-198.875,211.183-200.433
				c0.091-0.503,0.137-1.014,0.138-1.525V25.6C469.318,11.468,457.865,0.015,443.733,0z M452.267,308.958
				C449.992,319.75,418.358,454.267,256,494.683c-163.571-40.692-193.808-173.4-196.267-185.7V25.6
				c0.005-4.711,3.822-8.529,8.533-8.533h375.467c4.711,0.005,8.529,3.822,8.533,8.533V308.958z"/>
			<path d="M426.667,34.133H85.333c-2.263-0.001-4.434,0.898-6.035,2.499c-1.6,1.6-2.499,3.771-2.499,6.035v263.525
				c0.001,0.668,0.079,1.333,0.233,1.983c5.133,21.5,37.779,130.675,176.738,168.292c1.459,0.4,2.999,0.4,4.458,0
				c139.358-37.692,171.679-146.8,176.742-168.292c0.153-0.641,0.23-1.299,0.229-1.958V42.667c0.001-2.263-0.898-4.434-2.499-6.035
				C431.101,35.032,428.93,34.133,426.667,34.133z M418.133,305.208C412.796,326.975,382.192,424.217,256,459.383
				c-125.821-35.1-156.721-132.409-162.133-154.217V179.2h324.267V305.208z M418.133,162.133H93.867V51.2h324.267V162.133z"/>
			<path d="M204.8,409.6h102.4c14.132-0.015,25.585-11.468,25.6-25.6v-85.333c-0.015-14.132-11.468-25.585-25.6-25.6v-34.133
				c-0.028-23.553-19.114-42.639-42.667-42.667h-17.067c-23.553,0.028-42.639,19.114-42.667,42.667v34.133
				c-14.132,0.015-25.585,11.468-25.6,25.6V384C179.215,398.132,190.668,409.585,204.8,409.6z M221.867,238.933
				c0.015-14.132,11.468-25.585,25.6-25.6h17.067c14.132,0.015,25.585,11.468,25.6,25.6v34.133h-68.267V238.933z M196.267,298.667
				c0.005-4.711,3.822-8.529,8.533-8.533h102.4c4.711,0.005,8.529,3.822,8.533,8.533V384c-0.005,4.711-3.822,8.529-8.533,8.533
				H204.8c-4.711-0.005-8.529-3.822-8.533-8.533V298.667z"/>
			<path d="M247.467,356.827v10.106c0,4.713,3.82,8.533,8.533,8.533c4.713,0,8.533-3.82,8.533-8.533v-10.106
				c11.753-4.132,18.809-16.141,16.698-28.418c-2.111-12.278-12.773-21.24-25.231-21.209c-12.458-0.031-23.12,8.931-25.231,21.209
				C228.658,340.686,235.714,352.695,247.467,356.827z M256,324.267c4.713,0,8.533,3.821,8.533,8.533
				c-0.005,4.711-3.822,8.529-8.533,8.533c-4.713,0-8.533-3.821-8.533-8.533C247.467,328.087,251.287,324.267,256,324.267z"/>
			<path d="M171.359,139.892c1.342,3.139,4.428,5.175,7.842,5.175c3.414,0,6.499-2.036,7.842-5.175l25.6-59.733
				c1.855-4.33-0.15-9.344-4.48-11.2c-2.079-0.904-4.433-0.939-6.538-0.097c-2.105,0.842-3.785,2.491-4.666,4.58L179.2,114.867
				l-17.758-41.425c-1.194-2.811-3.799-4.769-6.831-5.135c-3.032-0.366-6.028,0.918-7.856,3.364s-2.208,5.684-0.997,8.487
				L171.359,139.892z"/>
			<path d="M238.933,145.067c4.713,0,8.533-3.82,8.533-8.533v-17.067H256c14.138,0,25.6-11.461,25.6-25.6
				c0-14.139-11.461-25.6-25.6-25.6h-17.067c-2.263-0.001-4.434,0.898-6.035,2.499c-1.6,1.6-2.499,3.771-2.499,6.035v59.733
				C230.4,141.246,234.221,145.067,238.933,145.067z M247.467,85.333H256c4.713,0,8.533,3.821,8.533,8.533
				c0,4.713-3.82,8.533-8.533,8.533h-8.533V85.333z"/>
			<path d="M307.2,145.067c4.713,0,8.533-3.82,8.533-8.533v-33.108l27.187,38.067c2.156,3.019,6.016,4.3,9.549,3.168
				c3.533-1.132,5.93-4.416,5.931-8.126V76.8c0.001-2.263-0.898-4.434-2.499-6.035c-1.6-1.6-3.771-2.499-6.035-2.499
				c-2.263-0.001-4.434,0.898-6.035,2.499c-1.6,1.6-2.499,3.771-2.499,6.035v33.108l-27.187-38.066
				c-2.156-3.019-6.015-4.3-9.548-3.168s-5.93,4.416-5.931,8.126v59.733C298.667,141.246,302.487,145.067,307.2,145.067z"/>
		</g>
	</g>
</g>
<g>
</g>
<g>
</g>
<g>
</g>
<g>
</g>
<g>
</g>
<g>
</g>
<g>
</g>
<g>
</g>
<g>
</g>
<g>
</g>
<g>
</g>
<g>
</g>
<g>
</g>
<g>
</g>
<g>
</g>
</svg>
